Y:\Users\EMiller\ForSelim\Mono_v2_HybridSims\subject10walking1\OpenSimData\Dynamics\walking1\GRF_resultant_walking1_case_mono_2sphereshift.mot
version=1
nRows=12
nColumns=19
inDegrees=yes
endheader 
time	ground_force_right_vx	ground_force_right_vy	ground_force_right_vz	ground_force_right_px	ground_force_right_py	ground_force_right_pz	ground_torque_right_x	ground_torque_right_y	ground_torque_right_z	ground_force_left_vx	ground_force_left_vy	ground_force_left_vz	ground_force_left_px	ground_force_left_py	ground_force_left_pz	ground_torque_left_x	ground_torque_left_y	ground_torque_left_z	
          0.62000000	          0.00000000	         -0.00000000	         -0.00000000	          0.00000000	          0.00000000	          0.00000000	          0.00000000	          0.00000000	          0.00000000	       -125.43043294	        662.09854505	         21.67368558	          0.87261892	          0.00000000	         -0.30103943	          0.00000000	         -2.40752708	          0.00000000	
          0.63000000	          0.00000000	         -0.00000000	         -0.00000000	          0.00000000	          0.00000000	          0.00000000	          0.00000000	          0.00000000	          0.00000000	       -116.20293351	        663.34783457	         24.11776866	          0.87613243	          0.00000000	         -0.30153683	          0.00000000	         -0.22974739	          0.00000000	
          0.64000000	          0.00000000	         -0.00000000	         -0.00000000	          0.00000000	          0.00000000	          0.00000000	          0.00000000	          0.00000000	          0.00000000	       -108.82176667	        661.97271682	         26.08505273	          0.87951356	          0.00000000	         -0.30237037	          0.00000000	          0.83300329	          0.00000000	
          0.65000000	          0.00000000	         -0.00000000	          0.00000000	          0.00000000	          0.00000000	          0.00000000	          0.00000000	         -0.00000000	          0.00000000	        -98.25219699	        655.41465178	         27.04458458	          0.88315369	          0.00000000	         -0.30353604	          0.00000000	          0.60702748	          0.00000000	
          0.66000000	          0.00000000	         -0.00000000	          0.00000000	          0.00000000	          0.00000000	          0.00000000	          0.00000000	         -0.00000000	          0.00000000	        -89.77589746	        645.50872132	         28.72977934	          0.88644503	          0.00000000	         -0.30486214	          0.00000000	         -1.27483800	          0.00000000	
          0.67000000	          0.00000000	         -0.00000000	          0.00000000	          0.00000000	          0.00000000	          0.00000000	          0.00000000	         -0.00000000	          0.00000000	        -79.82979127	        633.40360265	         27.99479541	          0.89017343	          0.00000000	         -0.30617580	          0.00000000	         -3.07255222	          0.00000000	
          0.68000000	         -0.00000027	          0.00000011	         -0.00000001	          0.56986395	          0.00000000	         -0.23044768	          0.00000000	          0.00000000	          0.00000000	        -69.77180722	        617.65817297	         27.92429178	          0.89331043	          0.00000000	         -0.30739049	          0.00000000	          0.80311592	          0.00000000	
          0.69000000	         -0.00000044	          0.00000017	         -0.00000003	          0.60855105	          0.00000000	         -0.22780479	          0.00000000	          0.00000000	          0.00000000	        -59.75402676	        600.27120431	         26.83251361	          0.89643403	          0.00000000	         -0.30887331	          0.00000000	          0.47246837	          0.00000000	
          0.70000000	         -0.00000081	          0.00000030	         -0.00000006	          0.64729538	          0.00000000	         -0.22480926	          0.00000000	          0.00000000	          0.00000000	        -50.87119379	        580.79650761	         25.58886536	          0.89949161	          0.00000000	         -0.31034060	          0.00000000	          0.55250446	          0.00000000	
          0.71000000	         -0.00000314	          0.00000110	         -0.00000025	          0.68573354	          0.00000000	         -0.22171449	          0.00000000	          0.00000000	          0.00000000	        -41.42167003	        559.43837482	         23.80868348	          0.90244498	          0.00000000	         -0.31180521	          0.00000000	          1.05394830	          0.00000000	
          0.72000000	         -0.00002520	          0.00000848	         -0.00000198	          0.72372234	          0.00000000	         -0.21876663	          0.00000000	          0.00000000	          0.00000000	        -33.84767228	        538.22967396	         22.22359000	          0.90552445	          0.00000000	         -0.31329304	          0.00000000	          1.15023182	          0.00000000	
          0.73000000	         -0.00035388	          0.00011476	         -0.00002620	          0.76135615	          0.00000000	         -0.21609432	          0.00000000	          0.00000000	          0.00000000	        -25.97706267	        517.46922632	         20.26310222	          0.90872624	          0.00000000	         -0.31475511	          0.00000000	          1.25932704	          0.00000000	
